#N canvas 262 82 948 717 10;
#X obj 70 177 shell;
#X obj 175 602 osc~;
#X obj 174 642 dac~;
#X text -187 108 Pidale al sistema que haga pings a una ip.;
#X text -258 211 Lea la salida del comando ping y agarre el tiempo
de latencia;
#X obj -266 -214 cnv 15 1 1 empty empty AUDIOPING_v0.1 20 12 0 30 -233017
-66577 0;
#X obj 196 401 print Latencia;
#X text -192 532 Calcule una frecuencia entre Fmin y Fmax. También
puede ajustar Tmin y Tmax para establecer la latencia minima y máxima
;
#X msg 237 510 0;
#X msg 361 510 440;
#X msg 424 510 8000;
#X obj 327 470 loadbang;
#X obj 307 471 bng 15 250 50 0 empty empty empty 17 7 0 10 -262144
-1 -1;
#X text 209 509 Tmin;
#X text 271 509 Tmax;
#X text 333 509 Fmin;
#X text 397 509 Fmax;
#X obj 175 569 expr $f4 + (($f5-$f4)/($f3-$f2))*($f1-$f2);
#X obj 175 539 limit;
#X obj 70 245 select rtt;
#X obj 70 212 unpack s s s s;
#X obj 118 280 symbol;
#X obj 118 322 s2l /;
#X obj 118 367 unpack f f;
#X obj 609 211 unpack s s s s s s;
#X obj 655 311 &&;
#X obj 655 376 print NO!;
#X obj 655 339 select 1;
#X obj 609 243 select 100%;
#X obj 721 244 select loss;
#X msg 721 278 1;
#X msg 609 273 1;
#X text 732 205 Cuando el comando ping falla (no se puede conectar
a la IP pedida) tira un mensaje "100% packet loss". Detectelo.;
#X text 720 376 YA veremos que hacer con esto.;
#X msg 70 72 192.164.1.65;
#X obj 70 -136 bng 15 250 50 0 empty empty Start 17 7 0 10 -262144
-1 -1;
#X obj 382 -131 bng 15 250 50 0 empty empty Stop 17 7 0 10 -262144
-1 -1;
#X obj 70 105 symbol;
#X msg 131 105 bang;
#X msg 382 -95 1;
#X msg 350 -95 0;
#X obj 184 213 s done;
#X obj 278 -58 r done;
#X obj 278 2 &&;
#X msg 278 -32 1;
#X obj 278 28 select 0;
#X msg 70 141 ping -W 1 -c 10 -s 1400 \$1;
#X msg 299 511 1000;
#X msg 429 -96 \; pd dsp 0;
#X msg -13 -107 \; pd dsp 1;
#X text -249 -187 Copyleft 2012;
#X text -249 -171 Rafael Vega <rvega@elsoftwarehamuerto.org>;
#X text -249 -157 Federico López <f@jardincosmico.net>;
#X text -41 71 Cambie esto!! -->;
#X connect 0 0 20 0;
#X connect 0 0 24 0;
#X connect 0 1 41 0;
#X connect 1 0 2 0;
#X connect 1 0 2 1;
#X connect 8 0 17 1;
#X connect 8 0 18 1;
#X connect 9 0 17 3;
#X connect 10 0 17 4;
#X connect 11 0 8 0;
#X connect 11 0 47 0;
#X connect 11 0 9 0;
#X connect 11 0 10 0;
#X connect 12 0 8 0;
#X connect 12 0 47 0;
#X connect 12 0 9 0;
#X connect 12 0 10 0;
#X connect 17 0 1 0;
#X connect 18 0 17 0;
#X connect 19 0 21 0;
#X connect 20 0 19 0;
#X connect 20 3 21 1;
#X connect 21 0 22 0;
#X connect 22 0 23 0;
#X connect 23 1 6 0;
#X connect 23 1 18 0;
#X connect 24 0 28 0;
#X connect 24 2 29 0;
#X connect 25 0 27 0;
#X connect 27 0 26 0;
#X connect 28 0 31 0;
#X connect 29 0 30 0;
#X connect 30 0 25 1;
#X connect 31 0 25 0;
#X connect 34 0 37 0;
#X connect 34 0 38 0;
#X connect 35 0 34 0;
#X connect 35 0 40 0;
#X connect 35 0 49 0;
#X connect 36 0 39 0;
#X connect 36 0 48 0;
#X connect 37 0 46 0;
#X connect 38 0 46 0;
#X connect 39 0 43 1;
#X connect 40 0 43 1;
#X connect 42 0 44 0;
#X connect 43 0 45 0;
#X connect 44 0 43 0;
#X connect 45 0 34 0;
#X connect 46 0 0 0;
#X connect 47 0 17 2;
#X connect 47 0 18 2;
